<svg width="82" height="82" viewBox="0 0 82 82" fill="none" xmlns="http://www.w3.org/2000/svg">
<path d="M77.9 41.1022H65.6V4.29426C65.6 2.65835 64.78 1.43142 63.55 0.613466C62.32 -0.204489 60.68 -0.204489 59.45 0.613466L47.15 7.56608L34.85 0.613466C33.62 -0.204489 31.98 -0.204489 30.75 0.613466L18.45 7.56608L6.15 0.613466C4.92 0.204489 3.28 0.204489 2.05 0.613466C0.82 1.43142 0 2.65835 0 4.29426V69.7307C0 76.6833 5.33 82 12.3 82H69.7C76.67 82 82 76.6833 82 69.7307V45.192C82 42.7382 80.36 41.1022 77.9 41.1022ZM30.75 39.0574H34.85C40.59 39.0574 45.1 43.5561 45.1 49.2818C45.1 54.1895 41.41 58.2793 36.9 59.0973V61.5511C36.9 64.005 35.26 65.6409 32.8 65.6409C30.34 65.6409 28.7 64.005 28.7 61.5511V59.5062H24.6C22.14 59.5062 20.5 57.8703 20.5 55.4165C20.5 52.9626 22.14 51.3267 24.6 51.3267H34.85C36.08 51.3267 36.9 50.5087 36.9 49.2818C36.9 48.0549 36.08 47.2369 34.85 47.2369H30.75C25.01 47.2369 20.5 42.7382 20.5 37.0125C20.5 32.1047 24.19 28.015 28.7 27.197V24.7431C28.7 22.2893 30.34 20.6534 32.8 20.6534C35.26 20.6534 36.9 22.2893 36.9 24.7431V26.788H41C43.46 26.788 45.1 28.4239 45.1 30.8778C45.1 33.3317 43.46 34.9676 41 34.9676H30.75C29.52 34.9676 28.7 35.7855 28.7 37.0125C28.7 38.2394 29.52 39.0574 30.75 39.0574ZM73.8 69.7307C73.8 72.1845 72.16 73.8204 69.7 73.8204C67.24 73.8204 65.6 72.1845 65.6 69.7307V49.2818H73.8V69.7307Z" fill="white"/>
</svg>
