<svg width="112" height="102" viewBox="0 0 112 102" fill="none" xmlns="http://www.w3.org/2000/svg">
<path d="M96.6668 30.6667H78.3668C77.8585 31.6834 77.3502 32.7 76.3335 33.2084L65.1502 44.3917L64.6418 44.9C64.1335 45.4084 63.6252 45.4084 63.1168 45.9167C62.6085 45.9167 62.6085 46.425 62.1002 46.425C61.5918 46.425 61.5918 46.9333 61.0835 46.9333C60.5752 46.9333 60.5752 46.9334 60.0668 47.4417C59.5585 47.4417 59.0502 47.95 59.0502 47.95C58.5418 47.95 58.0335 47.95 57.5252 47.95C57.0168 47.95 57.0168 47.95 56.5085 47.95C56.0002 47.95 56.0002 47.95 55.4918 47.95C54.9835 47.95 54.4752 47.95 53.9668 47.95C53.4585 47.95 52.9502 47.95 52.9502 47.4417C52.4418 47.4417 52.4418 47.4417 51.9335 46.9333C51.4252 46.9333 51.4252 46.425 50.9168 46.425C50.4085 46.425 50.4085 45.9167 49.9002 45.9167C49.3918 45.4084 48.8835 45.4084 48.3752 44.9L47.8668 44.3917L35.6668 33.2084C34.6502 32.7 34.1418 31.6834 33.6335 30.6667H15.3335C6.69183 30.6667 0.0834961 37.275 0.0834961 45.9167V86.5834C0.0834961 95.225 6.69183 101.833 15.3335 101.833H96.6668C105.308 101.833 111.917 95.225 111.917 86.5834V45.9167C111.917 37.7834 105.308 30.6667 96.6668 30.6667ZM25.5002 71.3334C22.4502 71.3334 20.4168 69.3 20.4168 66.25C20.4168 63.2 22.4502 61.1667 25.5002 61.1667C28.5502 61.1667 30.5835 63.2 30.5835 66.25C30.5835 69.3 28.5502 71.3334 25.5002 71.3334ZM56.0002 76.4167C50.4085 76.4167 45.8335 71.8417 45.8335 66.25C45.8335 60.6583 50.4085 56.0834 56.0002 56.0834C61.5918 56.0834 66.1668 60.6583 66.1668 66.25C66.1668 71.8417 61.5918 76.4167 56.0002 76.4167ZM86.5002 71.3334C83.4502 71.3334 81.4168 69.3 81.4168 66.25C81.4168 63.2 83.4502 61.1667 86.5002 61.1667C89.5502 61.1667 91.5835 63.2 91.5835 66.25C91.5835 69.3 89.5502 71.3334 86.5002 71.3334ZM52.4418 39.3083C54.4752 41.3417 57.5252 41.3417 59.5585 39.3083L71.2502 28.125C73.2835 26.0917 73.2835 23.0417 71.2502 21.0084C69.2168 18.975 66.1668 18.975 64.1335 21.0084L61.0835 23.55V5.25002C61.0835 2.20002 59.0502 0.166687 56.0002 0.166687C52.9502 0.166687 50.9168 2.20002 50.9168 5.25002V23.55L48.3752 21.0084C46.3418 18.975 43.2918 18.975 41.2585 21.0084C39.2252 23.0417 39.2252 26.0917 41.2585 28.125L52.4418 39.3083Z" fill="white"/>
</svg>
