<svg width="94" height="94" viewBox="0 0 94 94" fill="none" xmlns="http://www.w3.org/2000/svg">
<path d="M89.3 18.8H4.7C1.88 18.8 0 20.68 0 23.5V37.6C0 42.77 4.23 47 9.4 47C14.57 47 18.8 42.77 18.8 37.6C18.8 42.77 23.03 47 28.2 47C33.37 47 37.6 42.77 37.6 37.6C37.6 42.77 41.83 47 47 47C52.17 47 56.4 42.77 56.4 37.6C56.4 42.77 60.63 47 65.8 47C70.97 47 75.2 42.77 75.2 37.6C75.2 42.77 79.43 47 84.6 47C89.77 47 94 42.77 94 37.6V23.5C94 20.68 92.12 18.8 89.3 18.8ZM10.81 9.4H84.6C87.42 9.4 89.3 7.52 89.3 4.7C89.3 1.88 87.42 0 84.6 0H10.81C7.99 0 6.11 1.88 6.11 4.7C6.11 7.52 8.46 9.4 10.81 9.4ZM75.2 47C75.2 52.17 70.97 56.4 65.8 56.4C60.63 56.4 56.4 52.17 56.4 47C56.4 52.17 52.17 56.4 47 56.4C41.83 56.4 37.6 52.17 37.6 47C37.6 52.17 33.37 56.4 28.2 56.4C23.03 56.4 18.8 52.17 18.8 47C18.8 52.17 14.57 56.4 9.4 56.4V89.3C9.4 92.12 11.28 94 14.1 94H32.9V79.9C32.9 71.91 39.01 65.8 47 65.8C54.99 65.8 61.1 71.91 61.1 79.9V94H79.9C82.72 94 84.6 92.12 84.6 89.3V56.4C79.43 56.4 75.2 52.17 75.2 47Z" fill="#aba9a9"/>
</svg>
