<svg width="97" height="30" viewBox="0 0 97 59" fill="none" xmlns="http://www.w3.org/2000/svg">
<path d="M24.1863 9.68625H91.8529C94.7529 9.68625 96.6862 7.75292 96.6862 4.85292C96.6862 1.95292 94.7529 0.019584 91.8529 0.019584H24.1863C21.2863 0.019584 19.3529 1.95292 19.3529 4.85292C19.3529 7.75292 21.2863 9.68625 24.1863 9.68625ZM91.8529 24.1863H24.1863C21.2863 24.1863 19.3529 26.1196 19.3529 29.0196C19.3529 31.9196 21.2863 33.8529 24.1863 33.8529H91.8529C94.7529 33.8529 96.6862 31.9196 96.6862 29.0196C96.6862 26.1196 94.7529 24.1863 91.8529 24.1863ZM91.8529 48.3529H24.1863C21.2863 48.3529 19.3529 50.2863 19.3529 53.1863C19.3529 56.0863 21.2863 58.0196 24.1863 58.0196H91.8529C94.7529 58.0196 96.6862 56.0863 96.6862 53.1863C96.6862 50.2863 94.7529 48.3529 91.8529 48.3529ZM8.23625 1.46958C7.75292 0.986252 7.26959 0.502917 6.78625 0.502917C4.85292 -0.46375 2.91958 0.0195849 1.46958 1.46958C0.986251 1.95292 0.502917 2.43625 0.502917 2.91958C0.0195838 4.36958 0.0195838 5.33625 0.502917 6.78625C0.986251 7.26958 0.986251 7.75292 1.46958 8.23625C1.95292 8.71958 2.43625 9.20292 2.91958 9.20292C3.40292 9.68625 4.36958 9.68625 4.85292 9.68625C6.30292 9.68625 7.26958 9.20292 8.23625 8.23625C8.71958 7.75292 9.20292 7.26958 9.20292 6.78625C9.68625 5.33625 9.68625 4.36958 9.20292 2.91958C9.20292 2.43625 8.71958 1.95292 8.23625 1.46958ZM8.23625 25.6363C6.78625 24.1863 4.85292 23.7029 2.91958 24.6696C2.43625 25.1529 1.95292 25.1529 1.46958 25.6363C0.986251 26.1196 0.502917 26.6029 0.502917 27.0863C0.0195838 28.0529 0.0195838 29.5029 0.502917 30.9529C0.986251 31.4362 0.986251 31.9196 1.46958 32.4029C1.95292 32.8862 2.43625 33.3696 2.91958 33.3696C3.40292 33.8529 4.36958 33.8529 4.85292 33.8529C5.33625 33.8529 6.30292 33.8529 6.78625 33.3696C7.26959 32.8862 7.75292 32.8862 8.23625 32.4029C8.71958 31.9196 9.20292 31.4362 9.20292 30.9529C9.68625 29.9862 9.68625 28.5363 9.20292 27.0863C9.20292 26.6029 8.71958 26.1196 8.23625 25.6363ZM8.23625 49.8029C7.75292 49.3196 7.26959 48.8363 6.78625 48.8363C5.81958 48.3529 4.36958 48.3529 2.91958 48.8363C2.43625 48.8363 1.95292 49.3196 1.46958 49.8029C0.986251 50.2863 0.502917 50.7696 0.502917 51.2529C-0.46375 53.1863 0.019584 55.1196 1.46958 56.5696C1.95292 57.0529 2.43625 57.5363 2.91958 57.5363C3.40292 58.0196 4.36958 58.0196 4.85292 58.0196C5.33625 58.0196 6.30292 58.0196 6.78625 57.5363C7.26959 57.0529 7.75292 57.0529 8.23625 56.5696C9.68625 55.1196 10.1696 53.1863 9.20292 51.2529C9.20292 50.7696 8.71958 50.2863 8.23625 49.8029Z" fill="#aba9a9"/>
</svg>
